<?xml version="1.0" encoding="UTF-8" standalone="no"?>
<!DOCTYPE svg PUBLIC "-//W3C//DTD SVG 1.1//EN"
 "http://www.w3.org/Graphics/SVG/1.1/DTD/svg11.dtd">
<!-- Generated by graphviz version 2.40.1 (20161225.0304)
 -->
<!-- Title: prisma Pages: 1 -->
<svg width="566pt" height="710pt"
 viewBox="0.00 0.00 566.00 710.00" xmlns="http://www.w3.org/2000/svg" xmlns:xlink="http://www.w3.org/1999/xlink">
<g id="graph0" class="graph" transform="scale(1 1) rotate(0) translate(4 706)">
<title>prisma</title>
<polygon fill="#ffffff" stroke="transparent" points="-4,4 -4,-706 562,-706 562,4 -4,4"/>
<!-- input -->
<g id="node1" class="node">
<title>input</title>
<path fill="#d6eaf8" stroke="#1a5276" stroke-width="1.2" d="M290,-702.2016C290,-702.2016 12,-702.2016 12,-702.2016 6,-702.2016 0,-696.2016 0,-690.2016 0,-690.2016 0,-663.3984 0,-663.3984 0,-657.3984 6,-651.3984 12,-651.3984 12,-651.3984 290,-651.3984 290,-651.3984 296,-651.3984 302,-657.3984 302,-663.3984 302,-663.3984 302,-690.2016 302,-690.2016 302,-696.2016 296,-702.2016 290,-702.2016"/>
<text text-anchor="middle" x="151" y="-684.9" font-family="Helvetica,sans-Serif" font-weight="bold" font-size="9.00" fill="#000000">EEE&#45;CLASSIFIED THESES</text>
<text text-anchor="middle" x="151" y="-674.1" font-family="Helvetica,sans-Serif" font-weight="bold" font-size="9.00" fill="#000000">Output of LDP_thesis_classification project</text>
<text text-anchor="middle" x="151" y="-663.3" font-family="Helvetica,sans-Serif" font-weight="bold" font-size="9.00" fill="#000000">n = 1,682</text>
</g>
<!-- filter_step -->
<g id="node2" class="node">
<title>filter_step</title>
<path fill="#fef9e7" stroke="#7d6608" stroke-width="1.2" d="M290,-608.6C290,-608.6 12,-608.6 12,-608.6 6,-608.6 0,-602.6 0,-596.6 0,-596.6 0,-548.6 0,-548.6 0,-542.6 6,-536.6 12,-536.6 12,-536.6 290,-536.6 290,-536.6 296,-536.6 302,-542.6 302,-548.6 302,-548.6 302,-596.6 302,-596.6 302,-602.6 296,-608.6 290,-608.6"/>
<text text-anchor="middle" x="151" y="-591.5" font-family="Helvetica,sans-Serif" font-size="9.00" fill="#000000">Eligibility filtering &#160;(02_get_comparator_authors.R)</text>
<text text-anchor="middle" x="151" y="-580.7" font-family="Helvetica,sans-Serif" font-size="9.00" fill="#000000">Restrict to 4 LDP target institutions</text>
<text text-anchor="middle" x="151" y="-569.9" font-family="Helvetica,sans-Serif" font-size="9.00" fill="#000000">(McGill, UBC, Guelph, Manitoba)</text>
<text text-anchor="middle" x="151" y="-559.1" font-family="Helvetica,sans-Serif" font-size="9.00" fill="#000000">Thesis years 2022–2024 &#160;| &#160;prob_EEE ≥ 0.75</text>
<text text-anchor="middle" x="151" y="-548.3" font-family="Helvetica,sans-Serif" font-size="9.00" fill="#000000">Remove within&#45;institution duplicate authors</text>
</g>
<!-- input&#45;&gt;filter_step -->
<g id="edge1" class="edge">
<title>input&#45;&gt;filter_step</title>
<path fill="none" stroke="#000000" d="M151,-651.5761C151,-651.5761 151,-615.6193 151,-615.6193"/>
<polygon fill="#000000" stroke="#000000" points="153.4501,-615.6193 151,-608.6193 148.5501,-615.6194 153.4501,-615.6193"/>
</g>
<!-- eligible -->
<g id="node3" class="node">
<title>eligible</title>
<path fill="#d6eaf8" stroke="#1a5276" stroke-width="1.2" d="M290,-493.7003C290,-493.7003 12,-493.7003 12,-493.7003 6,-493.7003 0,-487.7003 0,-481.7003 0,-481.7003 0,-444.2997 0,-444.2997 0,-438.2997 6,-432.2997 12,-432.2997 12,-432.2997 290,-432.2997 290,-432.2997 296,-432.2997 302,-438.2997 302,-444.2997 302,-444.2997 302,-481.7003 302,-481.7003 302,-487.7003 296,-493.7003 290,-493.7003"/>
<text text-anchor="middle" x="151" y="-476.5" font-family="Helvetica,sans-Serif" font-size="9.00" fill="#000000">ELIGIBLE CANDIDATES</text>
<text text-anchor="middle" x="151" y="-465.7" font-family="Helvetica,sans-Serif" font-size="9.00" fill="#000000">4 institutions</text>
<text text-anchor="middle" x="151" y="-454.9" font-family="Helvetica,sans-Serif" font-size="9.00" fill="#000000">n = 421 unique authors</text>
<text text-anchor="middle" x="151" y="-444.1" font-family="Helvetica,sans-Serif" font-size="9.00" fill="#000000">(McGill: 80 &#160;| &#160;UBC: 188 &#160;| &#160;Guelph: 93 &#160;| &#160;Manitoba: 60)</text>
</g>
<!-- filter_step&#45;&gt;eligible -->
<g id="edge2" class="edge">
<title>filter_step&#45;&gt;eligible</title>
<path fill="none" stroke="#000000" d="M151,-536.4091C151,-536.4091 151,-500.6515 151,-500.6515"/>
<polygon fill="#000000" stroke="#000000" points="153.4501,-500.6515 151,-493.6515 148.5501,-500.6516 153.4501,-500.6515"/>
</g>
<!-- e_filter -->
<g id="node4" class="node">
<title>e_filter</title>
<path fill="#fadbd8" stroke="#922b21" stroke-width="1.2" d="M546,-493.7003C546,-493.7003 354,-493.7003 354,-493.7003 348,-493.7003 342,-487.7003 342,-481.7003 342,-481.7003 342,-444.2997 342,-444.2997 342,-438.2997 348,-432.2997 354,-432.2997 354,-432.2997 546,-432.2997 546,-432.2997 552,-432.2997 558,-438.2997 558,-444.2997 558,-444.2997 558,-481.7003 558,-481.7003 558,-487.7003 552,-493.7003 546,-493.7003"/>
<text text-anchor="middle" x="450" y="-476.5" font-family="Helvetica,sans-Serif" font-size="9.00" fill="#000000">Excluded at eligibility filter</text>
<text text-anchor="middle" x="450" y="-465.7" font-family="Helvetica,sans-Serif" font-size="9.00" fill="#000000">n = 1,261</text>
<text text-anchor="middle" x="450" y="-454.9" font-family="Helvetica,sans-Serif" font-size="9.00" fill="#000000">(wrong institution, thesis year,</text>
<text text-anchor="middle" x="450" y="-444.1" font-family="Helvetica,sans-Serif" font-size="9.00" fill="#000000">or classifier confidence &lt; 0.75)</text>
</g>
<!-- filter_step&#45;&gt;e_filter -->
<g id="edge7" class="edge">
<title>filter_step&#45;&gt;e_filter</title>
<path fill="none" stroke="#a93226" stroke-dasharray="5,2" d="M302.2519,-572C376.4134,-572 450,-572 450,-572 450,-572 450,-500.6526 450,-500.6526"/>
<polygon fill="#a93226" stroke="#a93226" points="452.4501,-500.6526 450,-493.6526 447.5501,-500.6527 452.4501,-500.6526"/>
</g>
<!-- eligible&#45;&gt;e_filter -->
<!-- ldp_excl_step -->
<g id="node5" class="node">
<title>ldp_excl_step</title>
<path fill="#fef9e7" stroke="#7d6608" stroke-width="1.2" d="M290,-389.5003C290,-389.5003 12,-389.5003 12,-389.5003 6,-389.5003 0,-383.5003 0,-377.5003 0,-377.5003 0,-340.0997 0,-340.0997 0,-334.0997 6,-328.0997 12,-328.0997 12,-328.0997 290,-328.0997 290,-328.0997 296,-328.0997 302,-334.0997 302,-340.0997 302,-340.0997 302,-377.5003 302,-377.5003 302,-383.5003 296,-389.5003 290,-389.5003"/>
<text text-anchor="middle" x="151" y="-372.3" font-family="Helvetica,sans-Serif" font-size="9.00" fill="#000000">LDP student exclusion</text>
<text text-anchor="middle" x="151" y="-361.5" font-family="Helvetica,sans-Serif" font-size="9.00" fill="#000000">Remove candidates on LDP enrolment</text>
<text text-anchor="middle" x="151" y="-350.7" font-family="Helvetica,sans-Serif" font-size="9.00" fill="#000000">exclusion list &#160;(n = 146 names on list;</text>
<text text-anchor="middle" x="151" y="-339.9" font-family="Helvetica,sans-Serif" font-size="9.00" fill="#000000">n = 28 overlapped with candidate pool)</text>
</g>
<!-- eligible&#45;&gt;ldp_excl_step -->
<g id="edge3" class="edge">
<title>eligible&#45;&gt;ldp_excl_step</title>
<path fill="none" stroke="#000000" d="M151,-432.3001C151,-432.3001 151,-396.6405 151,-396.6405"/>
<polygon fill="#000000" stroke="#000000" points="153.4501,-396.6405 151,-389.6405 148.5501,-396.6405 153.4501,-396.6405"/>
</g>
<!-- candidates -->
<g id="node6" class="node">
<title>candidates</title>
<path fill="#d6eaf8" stroke="#1a5276" stroke-width="1.2" d="M290,-285.3003C290,-285.3003 12,-285.3003 12,-285.3003 6,-285.3003 0,-279.3003 0,-273.3003 0,-273.3003 0,-235.8997 0,-235.8997 0,-229.8997 6,-223.8997 12,-223.8997 12,-223.8997 290,-223.8997 290,-223.8997 296,-223.8997 302,-229.8997 302,-235.8997 302,-235.8997 302,-273.3003 302,-273.3003 302,-279.3003 296,-285.3003 290,-285.3003"/>
<text text-anchor="middle" x="151" y="-268.1" font-family="Helvetica,sans-Serif" font-size="9.00" fill="#000000">ELIGIBLE NON&#45;LDP CANDIDATES</text>
<text text-anchor="middle" x="151" y="-257.3" font-family="Helvetica,sans-Serif" font-size="9.00" fill="#000000">4 institutions</text>
<text text-anchor="middle" x="151" y="-246.5" font-family="Helvetica,sans-Serif" font-size="9.00" fill="#000000">n = 393 authors</text>
<text text-anchor="middle" x="151" y="-235.7" font-family="Helvetica,sans-Serif" font-size="9.00" fill="#000000">(McGill: 69 &#160;| &#160;UBC: 171 &#160;| &#160;Guelph: 93 &#160;| &#160;Manitoba: 60)</text>
</g>
<!-- ldp_excl_step&#45;&gt;candidates -->
<g id="edge4" class="edge">
<title>ldp_excl_step&#45;&gt;candidates</title>
<path fill="none" stroke="#000000" d="M151,-328.1001C151,-328.1001 151,-292.4405 151,-292.4405"/>
<polygon fill="#000000" stroke="#000000" points="153.4501,-292.4405 151,-285.4405 148.5501,-292.4405 153.4501,-292.4405"/>
</g>
<!-- e_ldp -->
<g id="node7" class="node">
<title>e_ldp</title>
<path fill="#fadbd8" stroke="#922b21" stroke-width="1.2" d="M546,-274.202C546,-274.202 354,-274.202 354,-274.202 348,-274.202 342,-268.202 342,-262.202 342,-262.202 342,-246.998 342,-246.998 342,-240.998 348,-234.998 354,-234.998 354,-234.998 546,-234.998 546,-234.998 552,-234.998 558,-240.998 558,-246.998 558,-246.998 558,-262.202 558,-262.202 558,-268.202 552,-274.202 546,-274.202"/>
<text text-anchor="middle" x="450" y="-257.3" font-family="Helvetica,sans-Serif" font-size="9.00" fill="#000000">Excluded: LDP students</text>
<text text-anchor="middle" x="450" y="-246.5" font-family="Helvetica,sans-Serif" font-size="9.00" fill="#000000">n = 28</text>
</g>
<!-- ldp_excl_step&#45;&gt;e_ldp -->
<g id="edge8" class="edge">
<title>ldp_excl_step&#45;&gt;e_ldp</title>
<path fill="none" stroke="#a93226" stroke-dasharray="5,2" d="M302.2519,-358C376.4134,-358 450,-358 450,-358 450,-358 450,-281.5366 450,-281.5366"/>
<polygon fill="#a93226" stroke="#a93226" points="452.4501,-281.5365 450,-274.5366 447.5501,-281.5366 452.4501,-281.5365"/>
</g>
<!-- candidates&#45;&gt;e_ldp -->
<!-- search_step -->
<g id="node8" class="node">
<title>search_step</title>
<path fill="#fef9e7" stroke="#7d6608" stroke-width="1.2" d="M290,-180.8009C290,-180.8009 12,-180.8009 12,-180.8009 6,-180.8009 0,-174.8009 0,-168.8009 0,-168.8009 0,-99.5991 0,-99.5991 0,-93.5991 6,-87.5991 12,-87.5991 12,-87.5991 290,-87.5991 290,-87.5991 296,-87.5991 302,-93.5991 302,-99.5991 302,-99.5991 302,-168.8009 302,-168.8009 302,-174.8009 296,-180.8009 290,-180.8009"/>
<text text-anchor="middle" x="151" y="-163.9" font-family="Helvetica,sans-Serif" font-size="9.00" fill="#000000">OpenAlex publication retrieval &#160;(02_get_comparator_authors.R)</text>
<text text-anchor="middle" x="151" y="-153.1" font-family="Helvetica,sans-Serif" font-size="9.00" fill="#000000">Phase 1: institution&#45;level batch query (EEE field, from 2021)</text>
<text text-anchor="middle" x="151" y="-142.3" font-family="Helvetica,sans-Serif" font-size="9.00" fill="#000000">Phase 2: per&#45;author targeted works fetch</text>
<text text-anchor="middle" x="151" y="-131.5" font-family="Helvetica,sans-Serif" font-size="9.00" fill="#000000">Exclude authors with &gt; 30 total works</text>
<text text-anchor="middle" x="151" y="-120.7" font-family="Helvetica,sans-Serif" font-size="9.00" fill="#000000">Exclude publications matching non&#45;EEE keyword patterns</text>
<text text-anchor="middle" x="151" y="-109.9" font-family="Helvetica,sans-Serif" font-size="9.00" fill="#000000">Oversample at 2× institution target N for year&#45;matched pairing</text>
<text text-anchor="middle" x="151" y="-99.1" font-family="Helvetica,sans-Serif" font-size="9.00" fill="#000000">Target N: McGill = 7 &#160;| &#160;UBC = 13 &#160;| &#160;Guelph = 1 &#160;| &#160;Manitoba = 1</text>
</g>
<!-- candidates&#45;&gt;search_step -->
<g id="edge5" class="edge">
<title>candidates&#45;&gt;search_step</title>
<path fill="none" stroke="#000000" d="M151,-223.9065C151,-223.9065 151,-188.2307 151,-188.2307"/>
<polygon fill="#000000" stroke="#000000" points="153.4501,-188.2306 151,-181.2307 148.5501,-188.2307 153.4501,-188.2306"/>
</g>
<!-- final -->
<g id="node9" class="node">
<title>final</title>
<path fill="#82e0aa" stroke="#1d6a39" stroke-width="1.2" d="M290,-44.6018C290,-44.6018 12,-44.6018 12,-44.6018 6,-44.6018 0,-38.6018 0,-32.6018 0,-32.6018 0,-11.7982 0,-11.7982 0,-5.7982 6,.2018 12,.2018 12,.2018 290,.2018 290,.2018 296,.2018 302,-5.7982 302,-11.7982 302,-11.7982 302,-32.6018 302,-32.6018 302,-38.6018 296,-44.6018 290,-44.6018"/>
<text text-anchor="middle" x="151" y="-25.5" font-family="Helvetica,sans-Serif" font-size="11.00" fill="#000000">COMPARATOR PUBLICATION POOL</text>
<text text-anchor="middle" x="151" y="-12.3" font-family="Helvetica,sans-Serif" font-size="11.00" fill="#000000">109 authors &#160;| &#160;262 publications</text>
</g>
<!-- search_step&#45;&gt;final -->
<g id="edge6" class="edge">
<title>search_step&#45;&gt;final</title>
<path fill="none" stroke="#000000" d="M151,-87.3509C151,-87.3509 151,-51.4448 151,-51.4448"/>
<polygon fill="#000000" stroke="#000000" points="153.4501,-51.4447 151,-44.4448 148.5501,-51.4448 153.4501,-51.4447"/>
</g>
</g>
</svg>

